<svg width="20" height="20" viewBox="0 0 20 20" fill="none" xmlns="http://www.w3.org/2000/svg">
<path d="M9.99998 0C4.47974 0.00631975 0.00631975 4.47974 0 9.99998V17.8571C0 19.0406 0.959388 20 2.14286 20H5.00001C5.39451 20 5.71431 19.6802 5.71431 19.2857V12.1428C5.71431 11.7483 5.39451 11.4285 5.00001 11.4285H2.14286C1.89894 11.4311 1.65728 11.4758 1.42856 11.5607V9.99994C1.42856 5.26607 5.26611 1.42851 9.99998 1.42851C14.7338 1.42851 18.5714 5.26607 18.5714 9.99994V11.5607C18.3427 11.4758 18.101 11.4311 17.8571 11.4285H15C14.6055 11.4285 14.2857 11.7483 14.2857 12.1428V19.2857C14.2857 19.6802 14.6055 20 15 20H17.8571C19.0406 20 20 19.0406 20 17.8571V9.99998C19.9937 4.47974 15.5202 0.00631975 9.99998 0Z" fill="#96ADE9"/>
</svg>
