<svg width="20" height="20" viewBox="0 0 20 20" fill="none" xmlns="http://www.w3.org/2000/svg">
<path d="M0.818604 11.6637V17.9159C0.818604 19.0655 1.75394 20 2.90267 20H17.9081C19.0577 20 19.9921 19.0655 19.9921 17.9159V11.6637H0.818604Z" fill="#96ADE9"/>
<path d="M9.87693 1.90601L6.75745 2.64627L9.37089 6.49183L12.7496 5.72324L9.87693 1.90601Z" fill="#96ADE9"/>
<path d="M5.89039 2.85217L2.52832 3.6491L5.11425 7.45884L8.49796 6.68938L5.89039 2.85217Z" fill="#96ADE9"/>
<path d="M19.9788 3.63746L19.2694 0.94649C19.106 0.292075 18.4357 -0.119713 17.7746 0.0311611L14.9736 0.6964L17.6313 4.61449L19.6678 4.151C19.7787 4.12599 19.8737 4.05679 19.9321 3.96011C19.9905 3.86344 20.0071 3.7475 19.9788 3.63746Z" fill="#96ADE9"/>
<path d="M14.1059 0.902344L10.7622 1.69595L13.6399 5.5215L16.7585 4.81207L14.1059 0.902344Z" fill="#96ADE9"/>
<path d="M5.01935 7.49634L3.68555 10.83H6.95591L8.28971 7.49634H5.01935Z" fill="#96ADE9"/>
<path d="M9.18743 7.49634L7.85364 10.83H11.1239L12.4578 7.49634H9.18743Z" fill="#96ADE9"/>
<path d="M19.5754 7.49634H17.5239L16.1901 10.8309H19.9923V7.91313C19.9922 7.68222 19.8063 7.49634 19.5754 7.49634Z" fill="#96ADE9"/>
<path d="M13.3557 7.49634L12.0219 10.83H15.2914L16.626 7.49634H13.3557Z" fill="#96ADE9"/>
<path d="M1.66139 3.85583L0.981963 4.01671C0.651024 4.09174 0.370924 4.29263 0.19336 4.5811C0.0157961 4.87038 -0.0367228 5.2105 0.0458069 5.53976L0.818585 8.59419V10.83H2.78761L4.03888 7.70305L4.24228 7.65721L1.66139 3.85583Z" fill="#96ADE9"/>
</svg>
