<svg width="20" height="20" viewBox="0 0 20 20" fill="none" xmlns="http://www.w3.org/2000/svg">
<g clip-path="url(#clip0)">
<path d="M18.2117 5.71891C15.5701 1.37886 11.5907 4.39829 11.5907 4.39829C11.3326 4.59334 10.8567 4.75371 10.5334 4.75446L9.46746 4.7552C9.14411 4.75558 8.66822 4.59521 8.41051 4.40015C8.41051 4.40015 4.43073 1.37997 1.78872 5.72003C-0.852531 10.0586 0.211878 14.7835 0.211878 14.7835C0.398354 15.9404 1.01298 16.7125 2.17287 16.6155C3.3294 16.5189 5.83975 13.4998 5.83975 13.4998C6.04711 13.2511 6.4816 13.0478 6.8042 13.0478L13.1944 13.0467C13.5174 13.0467 13.9515 13.25 14.1585 13.4987C14.1585 13.4987 16.6692 16.5178 17.8276 16.6144C18.986 16.7113 19.6021 15.9386 19.7875 14.7824C19.7871 14.7824 20.8534 10.0582 18.2117 5.71891ZM7.59859 9.25153H6.22836V10.5722C6.22836 10.5722 5.93821 10.7937 5.48917 10.7881C5.04088 10.7814 4.83799 10.5464 4.83799 10.5464V9.2519H3.54384C3.54384 9.2519 3.38235 9.08631 3.33909 8.65033C3.29658 8.21435 3.51774 7.86191 3.51774 7.86191H4.88834V6.49167C4.88834 6.49167 5.17029 6.34063 5.57569 6.35219C5.98147 6.36487 6.27871 6.51741 6.27871 6.51741L6.27312 7.86153H7.56727C7.56727 7.86153 7.79327 8.15169 7.81192 8.50227C7.83057 8.85322 7.59859 9.25153 7.59859 9.25153ZM13.8836 10.7568C13.2835 10.7568 12.7998 10.2716 12.7998 9.67222C12.7998 9.07177 13.2835 8.58767 13.8836 8.58767C14.4811 8.58767 14.9685 9.07177 14.9685 9.67222C14.9685 10.2719 14.4811 10.7568 13.8836 10.7568ZM13.8836 7.77277C13.2835 7.77277 12.7998 7.28793 12.7998 6.68859C12.7998 6.08814 13.2835 5.60405 13.8836 5.60405C14.4811 5.60405 14.9685 6.08814 14.9685 6.68859C14.9685 7.2883 14.4811 7.77277 13.8836 7.77277ZM16.5845 9.3746C15.9845 9.3746 15.5007 8.88977 15.5007 8.29006C15.5007 7.68997 15.9845 7.20551 16.5845 7.20551C17.182 7.20551 17.6695 7.68997 17.6695 8.29006C17.6695 8.88977 17.182 9.3746 16.5845 9.3746Z" fill="#96ADE9"/>
</g>
<defs>
<clipPath id="clip0">
<rect width="20" height="20" fill="#96ADE9"/>
</clipPath>
</defs>
</svg>
