<svg width="36" height="36" viewBox="0 0 36 36" fill="none" xmlns="http://www.w3.org/2000/svg">
<rect width="36" height="36" rx="18" fill="#37364B"/>
<path d="M10.3456 20.9774C9.74676 21.3968 9.85764 22.1192 11.2238 22.571C12.5901 23.0227 14.178 23.1161 15.5753 22.8645C15.5353 22.8645 15.6551 22.8645 15.5753 22.8645V21.4387L14.2179 21.9C13.699 22.0677 13.18 22.1097 12.661 21.9839C12.2618 21.8581 12.3416 21.6065 12.8207 21.3968L15.5753 20.3903V18.8387L11.7428 20.2226C11.2638 20.3903 10.7847 20.6419 10.3456 20.9774ZM19.6073 14.6871V18.7548C21.2441 19.5935 22.5216 18.7548 22.5216 16.5742C22.5216 14.3516 21.763 13.3452 19.5674 12.5484C18.4097 12.129 17.212 11.7516 16.0144 11.5V23.6194L18.8089 24.5V14.3097C18.8089 13.8484 18.8089 13.5129 19.1282 13.6387C19.5674 13.7645 19.6073 14.2258 19.6073 14.6871ZM24.7971 20.0129C23.6393 19.5935 22.4018 19.4258 21.2042 19.5516C20.539 19.5953 19.9147 19.7934 19.2879 20.0129V21.6484L21.8828 20.6419C22.4018 20.4742 22.9208 20.4323 23.4397 20.5581C23.839 20.6839 23.7591 20.9355 23.2801 21.1452L19.2879 22.6968V24.2903L24.7971 22.1516C25.1963 21.9839 25.5556 21.7742 25.8749 21.4387C26.1544 21.0194 26.0346 20.4323 24.7971 20.0129Z" fill="white"/>
</svg>
