<svg width="36" height="36" viewBox="0 0 36 36" fill="none" xmlns="http://www.w3.org/2000/svg">
<rect width="36" height="36" rx="18" fill="#37364B"/>
<path fill-rule="evenodd" clip-rule="evenodd" d="M25 18C25 19.6454 24.4323 21.1582 23.4821 22.3533C23.5383 22.2071 23.5702 22.0382 23.5766 21.8466C23.5784 21.7912 23.5781 21.7339 23.5757 21.6747C23.5528 21.1194 23.3399 20.3964 22.9128 19.5036C22.8944 19.465 22.8757 19.4264 22.8567 19.3878C21.9304 17.495 20.4998 15.5986 19.9038 14.9139C19.9025 14.9124 19.9018 14.9115 19.9016 14.9112C20.0743 14.7185 20.6089 14.1912 21.3665 13.6224C22.1241 13.0535 22.6761 12.9953 22.8685 13.0298C22.6909 12.8372 22.2765 12.4743 21.9288 12.2298C20.8515 11.6965 18.8607 12.5977 18.0074 13.1113V16.6446C20.1827 18.3186 22.1952 20.9037 22.6021 21.9111C22.7378 22.247 22.7907 22.5175 22.7972 22.7268C22.7984 22.7638 22.7981 22.799 22.7965 22.8322C22.7892 22.9869 22.7548 23.1005 22.7134 23.1754C21.4695 24.3089 19.8154 25 18 25C16.2005 25 14.5597 24.321 13.3196 23.2053C13.2695 23.1308 13.2248 23.0041 13.2178 22.8215C13.2171 22.8026 13.2167 22.7831 13.2169 22.7631C13.2181 22.5491 13.269 22.2667 13.4127 21.9111C13.8196 20.9037 15.8321 18.3186 18.0074 16.6446V13.1113C17.154 12.5977 15.1633 11.6965 14.086 12.2298C13.7382 12.4743 13.3239 12.8372 13.1463 13.0298C13.3387 12.9953 13.8906 13.0535 14.6483 13.6224C15.4058 14.1912 15.9405 14.7185 16.1132 14.9112L16.1109 14.9139C15.5153 15.5982 14.0858 17.4931 13.1594 19.3851C13.14 19.4246 13.1208 19.4641 13.1019 19.5036C12.6694 20.4077 12.4566 21.1377 12.4383 21.6958C12.4363 21.7563 12.4366 21.8149 12.4392 21.8714C12.4482 22.0692 12.4848 22.2422 12.5478 22.3905C11.5796 21.1897 11 19.6626 11 18C11 14.134 14.134 11 18 11C21.866 11 25 14.134 25 18Z" fill="white"/>
</svg>
